<svg xmlns="http://www.w3.org/2000/svg" version="1.1" viewBox="0 0 41 41" x="0px" y="0px"><title>user-2</title><path d="M20.505 3.524c4.644 0 8.411 3.767 8.411 8.413 0 1.384-0.349 2.769-0.998 3.981-0.125 0.234-0.379 0.31-0.621 0.18-0.233-0.125-0.308-0.377-0.178-0.621v-0.003c0.578-1.085 0.883-2.301 0.883-3.538 0-4.128-3.37-7.497-7.497-7.497s-7.5 3.37-7.5 7.497 3.372 7.5 7.5 7.5c6.694 0 12.122 5.428 12.122 12.122v3.526c0 1.331-1.063 2.392-2.395 2.392h-19.464c-1.332 0-2.395-1.061-2.395-2.392v-3.526c0-3.054 1.137-5.96 3.206-8.21 0.175-0.191 0.455-0.203 0.643-0.030 0.19 0.175 0.202 0.451 0.028 0.641-1.902 2.075-2.953 4.776-2.953 7.59v3.526c0 0.812 0.66 1.481 1.479 1.481h19.464c0.817 0 1.481-0.662 1.481-1.481v-3.526c0-6.176-5.040-11.208-11.208-11.208-4.646 0-8.413-3.765-8.413-8.411s3.76-8.406 8.406-8.406z"/><text x="0" y="56" fill="#000000" font-size="5px" font-weight="bold" font-family="'Helvetica Neue', Helvetica, Arial-Unicode, Arial, Sans-serif">Created by vectlab</text><text x="0" y="61" fill="#000000" font-size="5px" font-weight="bold" font-family="'Helvetica Neue', Helvetica, Arial-Unicode, Arial, Sans-serif">from the Noun Project</text></svg>